<svg width="32" height="32" viewBox="0 0 32 32" fill="none" xmlns="http://www.w3.org/2000/svg">
<rect width="32" height="32" fill="#092648"/>
<path d="M13.6575 19.9712L14.8066 21.4641C15.1569 21.9191 15.8431 21.9191 16.1934 21.4641L17.3425 19.9712C17.7855 19.3959 17.3753 18.5625 16.6492 18.5625H14.3508C13.6247 18.5625 13.2145 19.3959 13.6575 19.9712Z" stroke="white" stroke-width="0.75"/>
<path d="M29.5427 24.96L17 21" stroke="white" stroke-linecap="round"/>
<path d="M29.5427 16L18 20" stroke="white" stroke-linecap="round"/>
<path d="M17.2992 20.48L30.6178 20.48" stroke="white" stroke-linecap="round"/>
<path d="M2.07507 24.96L14 21" stroke="white" stroke-linecap="round"/>
<path d="M2.07513 16L13.5 20" stroke="white" stroke-linecap="round"/>
<path d="M14 21H1" stroke="white" stroke-linecap="round"/>
<path d="M5.11489 12.8C4.71032 7.94497 4.68016 6.18647 5.11489 5.44336" stroke="white"/>
<path d="M12.8938 8.834C9.81898 6.12825 5.91674 4.41819 5.1788 5.49504" stroke="white"/>
<path d="M6.07996 5.12H4.79996V6.08L5.59996 5.92L5.91996 5.6L6.07996 5.12Z" fill="white"/>
<path d="M25.92 12.48C26.3312 8.04514 26.6818 6.43881 26.24 5.76001" stroke="white"/>
<path d="M18.5621 8.87142C21.4997 6.2485 25.3295 4.63812 26.1363 5.72941" stroke="white"/>
<path d="M25.28 5.44H26.56V6.4L25.76 6.24L25.44 5.92L25.28 5.44Z" fill="white"/>
<path d="M12.16 8.56001C15.68 8.24001 15.68 8.24001 19.2 8.56001" stroke="white"/>
</svg>
